<?xml version="1.0" encoding="utf-8"?>
<!-- Generator: Adobe Illustrator 27.5.0, SVG Export Plug-In . SVG Version: 6.00 Build 0)  -->
<svg version="1.1" xmlns="http://www.w3.org/2000/svg" xmlns:xlink="http://www.w3.org/1999/xlink" x="0px" y="0px"
	 viewBox="0 0 3710 3710" style="enable-background:new 0 0 3710 3710;" xml:space="preserve">
<g id="Background">
	<g>
		<g>
			<rect style="fill:#FFFFFF;" width="3710" height="3710"/>
		</g>
	</g>
</g>
<g id="Illustration">
	<g>
		<linearGradient id="SVGID_1_" gradientUnits="userSpaceOnUse" x1="3525.0828" y1="3993.78" x2="1093.8142" y2="974.297">
			<stop  offset="0" style="stop-color:#DAE3FE"/>
			<stop  offset="1" style="stop-color:#E9EFFD"/>
		</linearGradient>
		<path style="fill:url(#SVGID_1_);" d="M2856.225,2803.005c-55.845,58.792-108.685,96.706-150.434,126.66
			c-490.74,352.112-1071.416,249.473-1194.827,224.407c-182.238-37.013-534.5-108.56-789.179-408.057
			c-385.308-453.115-325.31-1166.984-26.439-1638.219c54.668-86.197,343.442-564.61,930.372-641.332
			c355.204-46.432,769.258,47.215,1069.104,298.427C3324.227,1292.207,3279.42,2357.479,2856.225,2803.005z"/>
		<path style="fill:#91B3FA;" d="M3200.852,3247.288h-985.691V1534.232c0-90.945,73.726-164.671,164.671-164.671h716.21
			c90.945,0,164.671,73.726,164.671,164.671v1653.195C3260.713,3220.487,3233.913,3247.288,3200.852,3247.288z"/>
		
			<linearGradient id="SVGID_00000147917907175795262420000015166275971409836427_" gradientUnits="userSpaceOnUse" x1="2797.252" y1="1386.0883" x2="424.3472" y2="5009.9199">
			<stop  offset="0" style="stop-color:#FF928E"/>
			<stop  offset="1" style="stop-color:#FE7062"/>
		</linearGradient>
		<path style="fill:url(#SVGID_00000147917907175795262420000015166275971409836427_);" d="M2549.649,3249.871h-996.485v-1449.58
			c0-26.874,21.785-48.659,48.659-48.659h916.855c26.874,0,48.659,21.785,48.659,48.659v1431.891
			C2567.338,3241.952,2559.418,3249.871,2549.649,3249.871z"/>
		<path style="fill:#91B3FA;" d="M1856.279,3253.276H949.757v-849.724c0-90.945,73.726-164.671,164.671-164.671h577.181
			c90.945,0,164.671,73.726,164.671,164.671V3253.276z"/>
		
			<linearGradient id="SVGID_00000174588408763261150340000008730802128190747286_" gradientUnits="userSpaceOnUse" x1="1227.3062" y1="2290.9741" x2="-70.9005" y2="4273.5576">
			<stop  offset="0" style="stop-color:#FF928E"/>
			<stop  offset="1" style="stop-color:#FE7062"/>
		</linearGradient>
		<path style="fill:url(#SVGID_00000174588408763261150340000008730802128190747286_);" d="M1189.624,3255H466.975
			c-9.769,0-17.688-7.919-17.688-17.688v-650.124c0-26.874,21.785-48.659,48.659-48.659h643.019
			c26.874,0,48.659,21.785,48.659,48.659V3255z"/>
		<g>
			
				<linearGradient id="SVGID_00000135679273323345787260000002122207421029950139_" gradientUnits="userSpaceOnUse" x1="2373.6819" y1="1642.6025" x2="2890.7405" y2="934.3407">
				<stop  offset="0" style="stop-color:#FF928E"/>
				<stop  offset="1" style="stop-color:#FE7062"/>
			</linearGradient>
			<polygon style="fill:url(#SVGID_00000135679273323345787260000002122207421029950139_);" points="2770.357,1312.996 
				2717.883,1312.996 2635.396,1070.354 2864.685,1056.428 			"/>
			
				<linearGradient id="SVGID_00000157271883823793793800000007372417299798637200_" gradientUnits="userSpaceOnUse" x1="2751.2734" y1="1141.5917" x2="2741.1216" y2="583.2274">
				<stop  offset="0" style="stop-color:#FF928E"/>
				<stop  offset="1" style="stop-color:#FE7062"/>
			</linearGradient>
			<path style="fill:url(#SVGID_00000157271883823793793800000007372417299798637200_);" d="M2495.827,619.547
				c-0.259,20.48-0.259,421.458,203.293,486.574c203.552,65.116,295.494-274.154,288.198-515.778L2495.827,619.547z"/>
			
				<linearGradient id="SVGID_00000099654525293456097330000014608587716089942459_" gradientUnits="userSpaceOnUse" x1="2775.3418" y1="1211.6177" x2="2861.6345" y2="775.0795">
				<stop  offset="0" style="stop-color:#FF928E"/>
				<stop  offset="1" style="stop-color:#FE7062"/>
			</linearGradient>
			
				<rect x="2581.408" y="1349.807" style="fill:url(#SVGID_00000099654525293456097330000014608587716089942459_);" width="325.425" height="39.51"/>
			
				<linearGradient id="SVGID_00000119078429432113348400000000754243836890506634_" gradientUnits="userSpaceOnUse" x1="3072.1638" y1="991.5336" x2="2674.5383" y2="1425.8004">
				<stop  offset="0" style="stop-color:#FF928E"/>
				<stop  offset="1" style="stop-color:#FE7062"/>
			</linearGradient>
			<polygon style="fill:url(#SVGID_00000119078429432113348400000000754243836890506634_);" points="2906.833,1349.807 
				2581.408,1349.807 2663.768,1305.621 2824.473,1305.621 			"/>
			
				<linearGradient id="SVGID_00000000210733490450340180000003477197533714654639_" gradientUnits="userSpaceOnUse" x1="2752.417" y1="583.6286" x2="2859.0129" y2="-30.5687">
				<stop  offset="0" style="stop-color:#FF928E"/>
				<stop  offset="1" style="stop-color:#FE7062"/>
			</linearGradient>
			<path style="fill:url(#SVGID_00000000210733490450340180000003477197533714654639_);" d="M2472.237,562.653
				c-17.868,1.087-32.485,14.315-32.485,29.396v30.841c0,15.08,14.626,26.631,32.503,25.67l557.864-30.016
				c17.878-0.961,32.504-14.087,32.504-29.167v-35.227c0-15.081-14.619-26.529-32.486-25.443L2472.237,562.653z"/>
			
				<linearGradient id="SVGID_00000072248148152388938020000013940545361317472655_" gradientUnits="userSpaceOnUse" x1="3074.2507" y1="1288.0183" x2="2871.2" y2="830.0263">
				<stop  offset="0" style="stop-color:#FF928E"/>
				<stop  offset="1" style="stop-color:#FE7062"/>
			</linearGradient>
			<path style="fill:url(#SVGID_00000072248148152388938020000013940545361317472655_);" d="M2843.267,1137.991
				c-13.002,0-24.218-8.215-25.729-19.351c-1.625-11.973,8.584-22.79,22.803-24.164c2.708-0.271,189.912-20.039,207.66-122.502
				c2.994-17.275,2.661-39.844-15.916-49.261c-15.333-7.777-40.436-5.305-58.385,5.747c-10.205,6.283-21.372,17.289-16.623,34.041
				c3.325,11.726-5.271,23.501-19.202,26.3c-13.925,2.796-27.914-4.439-31.239-16.165c-8.611-30.371,5.014-60.058,36.448-79.413
				c34.922-21.508,82.522-24.756,115.757-7.909c19.425,9.847,50.514,35.02,40.477,92.96
				c-9.924,57.289-57.762,103.182-138.342,132.715c-57.862,21.208-112.437,26.639-114.732,26.859
				C2845.244,1137.944,2844.25,1137.991,2843.267,1137.991z"/>
			
				<linearGradient id="SVGID_00000161625030763613445020000014251273619641592989_" gradientUnits="userSpaceOnUse" x1="2395.7017" y1="1152.6073" x2="2648.387" y2="913.4593">
				<stop  offset="0" style="stop-color:#FF928E"/>
				<stop  offset="1" style="stop-color:#FE7062"/>
			</linearGradient>
			<path style="fill:url(#SVGID_00000161625030763613445020000014251273619641592989_);" d="M2649.105,1137.991
				c13.001,0,24.217-8.215,25.729-19.351c1.624-11.973-8.585-22.79-22.803-24.164c-2.708-0.271-189.912-20.039-207.661-122.502
				c-2.994-17.275-2.661-39.844,15.916-49.261c15.333-7.777,40.437-5.305,58.386,5.747c10.204,6.283,21.371,17.289,16.622,34.041
				c-3.325,11.726,5.271,23.501,19.201,26.3c13.925,2.796,27.915-4.439,31.24-16.165c8.611-30.371-5.014-60.058-36.448-79.413
				c-34.922-21.508-82.523-24.756-115.757-7.909c-19.425,9.847-50.515,35.02-40.477,92.96
				c9.923,57.289,57.762,103.182,138.341,132.715c57.862,21.208,112.437,26.639,114.732,26.859
				C2647.129,1137.944,2648.122,1137.991,2649.105,1137.991z"/>
			<path style="opacity:0.8;fill:#FFFFFF;" d="M2876.9,588.051c-2.236,0-4.107-1.751-4.229-4.012
				c-0.126-2.337,1.668-4.335,4.006-4.461l49.82-2.679c2.345-0.091,4.335,1.667,4.461,4.006c0.126,2.337-1.668,4.335-4.005,4.461
				l-49.82,2.679C2877.055,588.049,2876.977,588.051,2876.9,588.051z"/>
			<path style="opacity:0.8;fill:#FFFFFF;" d="M2495.805,608.556c-2.236,0-4.107-1.751-4.229-4.012
				c-0.126-2.337,1.668-4.335,4.006-4.461l297.632-16.012c2.327-0.136,4.334,1.668,4.461,4.006c0.126,2.337-1.668,4.335-4.006,4.461
				l-297.632,16.012C2495.96,608.554,2495.881,608.556,2495.805,608.556z"/>
			<path style="opacity:0.8;fill:#FFFFFF;" d="M2726.267,1060.667c-0.163,0-0.327-0.008-0.491-0.027
				c-53.896-6.2-96.982-50.087-128.059-130.443c-25.663-66.356-37.776-144.011-43.417-197.47c-0.244-2.329,1.443-4.416,3.772-4.662
				c2.333-0.222,4.416,1.443,4.662,3.772c9.684,91.771,45.051,306.697,164.01,320.378c2.327,0.269,3.995,2.37,3.728,4.697
				C2730.222,1059.073,2728.39,1060.667,2726.267,1060.667z"/>
			<path style="opacity:0.8;fill:#FFFFFF;" d="M2554.917,694.591c-2.217,0-4.08-1.722-4.227-3.964
				c-0.795-12.237-1.008-19.275-1.017-19.569c-0.07-2.342,1.772-4.293,4.111-4.364c2.509-0.155,4.296,1.772,4.364,4.111
				c0.002,0.07,0.22,7.202,1.004,19.271c0.152,2.337-1.621,4.354-3.956,4.507C2555.104,694.589,2555.01,694.591,2554.917,694.591z"
				/>
		</g>
		<g>
			<g>
				
					<linearGradient id="SVGID_00000052087963866937609250000002784183361345947025_" gradientUnits="userSpaceOnUse" x1="2346.0464" y1="518.7051" x2="919.2436" y2="2550.3472">
					<stop  offset="0" style="stop-color:#4F52FF"/>
					<stop  offset="1" style="stop-color:#4042E2"/>
				</linearGradient>
				<path style="fill:url(#SVGID_00000052087963866937609250000002784183361345947025_);" d="M1739.652,697.618
					c136.364-40.405,266.403-29.509,331.33-12.341c76.755,20.296,102.216,35.525,170.164,43.19
					c60.394,6.813,220.896-42.052,200.348-5.296c-26.784,47.913-19.459,235.56,20.538,313.795
					c5.817,11.378-184.257,39.554-299.423,18.511c-158.776-29.01-209.893-77.663-314.15-55.53
					c-48.093,10.21-84.641,30.631-107.989,46.275C1751.106,930.536,1729.017,813.306,1739.652,697.618z"/>
				<path style="fill:#26264F;" d="M1741.375,2253.803c-3.212,0-5.817-2.604-5.817-5.816V660.419c0-3.212,2.604-5.815,5.817-5.815
					s5.817,2.603,5.817,5.815v1587.568C1747.191,2251.199,1744.587,2253.803,1741.375,2253.803z"/>
			</g>
			<g>
				
					<linearGradient id="SVGID_00000183210677814358289530000000962527417600804264_" gradientUnits="userSpaceOnUse" x1="1693.5045" y1="2217.6675" x2="1802.9216" y2="2217.6675" gradientTransform="matrix(-1 0 0 1 2861.6616 0)">
					<stop  offset="0" style="stop-color:#09005D"/>
					<stop  offset="1" style="stop-color:#1A0F91"/>
				</linearGradient>
				<path style="fill:url(#SVGID_00000183210677814358289530000000962527417600804264_);" d="M1058.742,2254.332
					c-0.013-0.824,0.042-1.658,0.254-2.499c12.459-49.396,63.402-74.714,63.402-74.714l24.505,1.921
					c14.089,43.536,23.173,64.789,20.91,76.683c-0.063,0.333-0.164,0.65-0.252,0.973
					C1147.347,2258.502,1105.741,2259.681,1058.742,2254.332z"/>
				
					<linearGradient id="SVGID_00000124862239882933956750000005866649553272915606_" gradientUnits="userSpaceOnUse" x1="1968.9343" y1="2084.4448" x2="1566.4972" y2="2400.4395" gradientTransform="matrix(-1 0 0 1 2861.6616 0)">
					<stop  offset="0" style="stop-color:#4F52FF"/>
					<stop  offset="1" style="stop-color:#4042E2"/>
				</linearGradient>
				<path style="fill:url(#SVGID_00000124862239882933956750000005866649553272915606_);" d="M1167.858,2256.696
					c-1.091,3.971-4.023,7.063-7.776,7.852c-28.754,6.047-74.456,1.18-93.645-1.328c-4.233-0.553-7.328-4.468-7.398-8.888
					C1106.039,2259.681,1147.644,2258.502,1167.858,2256.696z"/>
				
					<linearGradient id="SVGID_00000164482701055364521780000002158839747612728986_" gradientUnits="userSpaceOnUse" x1="2944.0886" y1="2089.2749" x2="2922.2446" y2="2279.9158" gradientTransform="matrix(1 0 0 1 -1811.8352 0)">
					<stop  offset="0" style="stop-color:#FEBBBA"/>
					<stop  offset="1" style="stop-color:#FF928E"/>
				</linearGradient>
				<path style="fill:url(#SVGID_00000164482701055364521780000002158839747612728986_);" d="M1102.221,2138.986l10.729,51.648
					c0.786,3.785,3.694,6.619,7.216,6.95c4.312,0.405,10.449,0.642,16.621-0.265c5.535-0.813,9.389-6.438,8.408-12.474
					l-7.458-45.859H1102.221z"/>
				
					<linearGradient id="SVGID_00000120519356500176455210000006099487782300826806_" gradientUnits="userSpaceOnUse" x1="3314.6106" y1="2178.2253" x2="2925.4402" y2="2483.803" gradientTransform="matrix(1 0 0 1 -1811.8352 0)">
					<stop  offset="0" style="stop-color:#4F52FF"/>
					<stop  offset="1" style="stop-color:#4042E2"/>
				</linearGradient>
				<path style="fill:url(#SVGID_00000120519356500176455210000006099487782300826806_);" d="M1375.437,2256.267
					c-26.171-0.732-39.707-3.814-46.705-6.675c-0.016,2.602-0.001,5.25,0.083,7.994c0.091,2.931,2.262,5.272,4.931,5.255
					l143.694-0.927c4.586-0.03,7.266-5.348,5.278-9.553C1463.877,2253.917,1415.892,2257.399,1375.437,2256.267z"/>
				
					<linearGradient id="SVGID_00000096777998519811028860000001899051989015951265_" gradientUnits="userSpaceOnUse" x1="3140.896" y1="2219.2224" x2="3294.8823" y2="2219.2224" gradientTransform="matrix(1 0 0 1 -1811.8352 0)">
					<stop  offset="0" style="stop-color:#09005D"/>
					<stop  offset="1" style="stop-color:#1A0F91"/>
				</linearGradient>
				<path style="fill:url(#SVGID_00000096777998519811028860000001899051989015951265_);" d="M1483.047,2252.36
					c-0.173-0.365-0.322-0.739-0.569-1.083c-12.69-17.731-45.011-53.04-108.878-68.354l-30.639-0.967
					c0,0-13.643,23.712-13.901,67.636c6.998,2.86,20.535,5.942,46.705,6.675C1416.221,2257.399,1464.207,2253.917,1483.047,2252.36z
					"/>
				
					<linearGradient id="SVGID_00000070120286928125161510000001102693583711422093_" gradientUnits="userSpaceOnUse" x1="3174.2004" y1="2113.665" x2="3153.7666" y2="2291.9971" gradientTransform="matrix(1 0 0 1 -1811.8352 0)">
					<stop  offset="0" style="stop-color:#FEBBBA"/>
					<stop  offset="1" style="stop-color:#FF928E"/>
				</linearGradient>
				<path style="fill:url(#SVGID_00000070120286928125161510000001102693583711422093_);" d="M1337.28,2135.522
					c0.341,2.284,4.54,36.994,6.166,50.452c0.386,3.199,2.703,5.673,5.624,6.022c5.217,0.623,13.659,1.19,21.045-0.324
					c3.984-0.816,6.868-4.645,6.868-9.095v-54.486L1337.28,2135.522z"/>
				
					<linearGradient id="SVGID_00000148648815099948056040000018377181338450309258_" gradientUnits="userSpaceOnUse" x1="1630.5543" y1="1313.0548" x2="853.9193" y2="2335.2441">
					<stop  offset="0" style="stop-color:#09005D"/>
					<stop  offset="1" style="stop-color:#1A0F91"/>
				</linearGradient>
				<path style="fill:url(#SVGID_00000148648815099948056040000018377181338450309258_);" d="M1122.694,1460.77
					c0,0-49.027,435.802-21.79,708.178c0,0,32.685,0,49.028-5.447c0,0,50.947-426.103,67.428-548.033
					c0.621-4.596,7.183-4.805,8.084-0.256c20.335,102.581,100.205,504.852,109.703,542.841c0,0,27.238,10.895,49.028,0
					c0,0-43.581-582.885-76.266-686.388L1122.694,1460.77z"/>
				
					<linearGradient id="SVGID_00000180327731377792297470000007076981820960078523_" gradientUnits="userSpaceOnUse" x1="1398.4258" y1="931.5107" x2="886.6382" y2="1551.8601">
					<stop  offset="0" style="stop-color:#4F52FF"/>
					<stop  offset="1" style="stop-color:#4042E2"/>
				</linearGradient>
				<path style="fill:url(#SVGID_00000180327731377792297470000007076981820960078523_);" d="M1024.638,954.15
					c0,0,164.822-22.255,315.232,0.447c37.214,5.617,63.14,39.889,58.102,77.185l-13.797,102.136c0,0-43.581,234.244-76.266,337.747
					c0,0-125.293,21.79-185.216-10.895c0,0-49.027-294.166-76.265-337.747C1046.428,1123.023,1019.19,1008.625,1024.638,954.15z"/>
				
					<linearGradient id="SVGID_00000082344675448957920210000013274479892727093920_" gradientUnits="userSpaceOnUse" x1="1182.7599" y1="1032.7343" x2="1213.7775" y2="831.1208">
					<stop  offset="0" style="stop-color:#FEBBBA"/>
					<stop  offset="1" style="stop-color:#FF928E"/>
				</linearGradient>
				<path style="fill:url(#SVGID_00000082344675448957920210000013274479892727093920_);" d="M1168.443,805.298l-20.622,139.457
					c0,0,57.614,26.466,97.956-1.136l-8.685-98.42L1168.443,805.298z"/>
				<g>
					
						<linearGradient id="SVGID_00000093175877954307253440000010999991623437648519_" gradientUnits="userSpaceOnUse" x1="11837.1484" y1="-2355.3582" x2="12008.75" y2="-2397.1235" gradientTransform="matrix(0.8757 -0.4828 0.4828 0.8757 133.6748 1095.1436)">
						<stop  offset="0" style="stop-color:#FEBBBA"/>
						<stop  offset="1" style="stop-color:#FF928E"/>
					</linearGradient>
					<path style="fill:url(#SVGID_00000093175877954307253440000010999991623437648519_);" d="M1257.231,714.489
						c0.65,1.178,13.079,71.501,20.73,115.031c3.161,17.985-10.059,34.692-28.289,35.771l-16.693,0.988
						c-30.671,1.816-57.681-20.021-62.329-50.392l-12.07-78.852C1158.58,737.035,1241.464,685.889,1257.231,714.489z"/>
					
						<linearGradient id="SVGID_00000004526807851841531330000012583666967384064393_" gradientUnits="userSpaceOnUse" x1="1025.6987" y1="195.8134" x2="1202.4489" y2="195.8134" gradientTransform="matrix(0.8757 -0.4828 0.4828 0.8757 133.6748 1095.1436)">
						<stop  offset="0" style="stop-color:#09005D"/>
						<stop  offset="1" style="stop-color:#1A0F91"/>
					</linearGradient>
					<path style="fill:url(#SVGID_00000004526807851841531330000012583666967384064393_);" d="M1140.583,737.229
						c-6.4-7.959-11.981-20.828,1.649-34.36c13.798-13.701,29.452-10.286,39.382-5.691c4.394,2.033,9.81,1.133,12.939-2.565
						c1.391-1.642,3.454-2.76,6.515-2.417c5.773,0.647,10.926-3.164,11.611-8.932c1.174-9.889,6.443-21.533,23.927-24.911
						c32.069-6.198,48.068,25.895,47.495,48.454c-0.571,22.556-35.722,27.3-55.665,23.556c-14.649-2.751-27.315,10.122-33.007,17.15
						c-2.067,2.551-2.837,5.893-2.094,9.09l5.07,21.791c-3.512,6.774-6.959,13.692-11.891,19.473
						c-3.552,4.163-7.446,6.459-11.574,7.432c-5.98-11.129-22.702-13.017-30.474-13.266c-2.974-0.095-5.75-1.406-7.705-3.648
						c-5.863-6.724-15.04-21.727,2.526-36.458C1143.656,748.263,1144.154,741.672,1140.583,737.229z"/>
					
						<linearGradient id="SVGID_00000078738997444786500150000011725832781997420199_" gradientUnits="userSpaceOnUse" x1="11831.1914" y1="-2380.2378" x2="12002.7959" y2="-2422.0037" gradientTransform="matrix(0.8757 -0.4828 0.4828 0.8757 133.6748 1095.1436)">
						<stop  offset="0" style="stop-color:#FEBBBA"/>
						<stop  offset="1" style="stop-color:#FF928E"/>
					</linearGradient>
					<path style="fill:url(#SVGID_00000078738997444786500150000011725832781997420199_);" d="M1180.723,828.628
						c0,0-0.691-39.349-16.616-43.044c-15.926-3.696-33.108,7.818-19.487,31.376
						C1161.563,846.263,1180.723,828.628,1180.723,828.628z"/>
				</g>
				
					<linearGradient id="SVGID_00000011033678820636823000000015074463446040922248_" gradientUnits="userSpaceOnUse" x1="1153.2312" y1="729.2254" x2="641.4432" y2="1349.5751">
					<stop  offset="0" style="stop-color:#4F52FF"/>
					<stop  offset="1" style="stop-color:#4042E2"/>
				</linearGradient>
				<path style="fill:url(#SVGID_00000011033678820636823000000015074463446040922248_);" d="M1117.816,1142.251
					c0,0-467.745-127.32-235.491-454.752l15.713,22.249c0,0-69.975,221.774,161.827,242.847
					C1059.866,952.594,1119.901,1107.432,1117.816,1142.251z"/>
				
					<linearGradient id="SVGID_00000053514403561714351570000001133456535446955415_" gradientUnits="userSpaceOnUse" x1="939.9164" y1="589.7631" x2="884.6" y2="771.5172">
					<stop  offset="0" style="stop-color:#FEBBBA"/>
					<stop  offset="1" style="stop-color:#FF928E"/>
				</linearGradient>
				<path style="fill:url(#SVGID_00000053514403561714351570000001133456535446955415_);" d="M880.746,689.183
					c0,0-5.269-63.219,26.341-68.487c31.609-5.269,42.146,26.341,47.414,42.146c5.268,15.804-47.414,47.414-57.951,47.414
					S880.746,689.183,880.746,689.183z"/>
				
					<linearGradient id="SVGID_00000000904500025963584720000003622677277292864932_" gradientUnits="userSpaceOnUse" x1="1569.8899" y1="1072.969" x2="1058.1021" y2="1693.3186">
					<stop  offset="0" style="stop-color:#4F52FF"/>
					<stop  offset="1" style="stop-color:#4042E2"/>
				</linearGradient>
				<path style="fill:url(#SVGID_00000000904500025963584720000003622677277292864932_);" d="M1369.882,1177.218
					c0,0,60.459,239.275,363.718-24.324l-23.247-14.194c0,0-266.996,189.42-314.045-133.693
					C1396.309,1005.008,1369.882,1148.158,1369.882,1177.218z"/>
				
					<linearGradient id="SVGID_00000153685489542350443460000003576890557838726541_" gradientUnits="userSpaceOnUse" x1="5713.833" y1="2508.6418" x2="5658.5186" y2="2690.3904" gradientTransform="matrix(-0.0667 -0.9978 -0.9978 0.0667 4711.5127 6622.8477)">
					<stop  offset="0" style="stop-color:#FEBBBA"/>
					<stop  offset="1" style="stop-color:#FF928E"/>
				</linearGradient>
				<path style="fill:url(#SVGID_00000153685489542350443460000003576890557838726541_);" d="M1732.026,1154.582
					c0,0,63.429,1.039,66.577-30.852c3.147-31.891-29.095-40.295-45.216-44.497c-16.121-4.202-44.145,50.472-43.442,60.985
					S1732.026,1154.582,1732.026,1154.582z"/>
			</g>
		</g>
	</g>
</g>
</svg>
